<?xml version="1.0" encoding="UTF-8"?>
<!DOCTYPE svg PUBLIC "-//W3C//DTD SVG 1.1//EN" "http://www.w3.org/Graphics/SVG/1.1/DTD/svg11.dtd">
<!-- Creator: CorelDRAW 2020 (64 Bit) -->
<svg xmlns="http://www.w3.org/2000/svg" xml:space="preserve" width="239.932mm" height="84.1697mm" version="1.1" style="shape-rendering:geometricPrecision; text-rendering:geometricPrecision; image-rendering:optimizeQuality; fill-rule:evenodd; clip-rule:evenodd"
viewBox="0 0 24156.67 8474.3"
 xmlns:xlink="http://www.w3.org/1999/xlink"
 xmlns:xodm="http://www.corel.com/coreldraw/odm/2003">
 <defs>
  <style type="text/css">
   <![CDATA[
    .fil1 {fill:#222222;fill-rule:nonzero}
    .fil2 {fill:#35B729;fill-rule:nonzero}
    .fil0 {fill:#A8A8A8;fill-rule:nonzero}
    .fil3 {fill:#FFBD4A;fill-rule:nonzero}
   ]]>
  </style>
 </defs>
 <g id="Camada_x0020_1">
  <metadata id="CorelCorpID_0Corel-Layer"/>
  <path class="fil0" d="M2112.44 2841.58l-933.55 -347.53c-322.54,-118.14 -541.72,-280.54 -657.59,-487.24 -115.84,-206.69 -151.03,-480.38 -105.62,-821.11 27.25,-208.98 73.81,-385.01 139.73,-528.11 65.86,-143.07 143.11,-257.8 231.66,-344.13 88.59,-86.29 203.29,-152.18 344.13,-197.59 140.84,-45.44 281.66,-74.96 422.5,-88.59 140.81,-13.63 315.73,-20.44 524.68,-20.44 563.3,9.07 1026.72,54.48 1390.1,136.25l-61.32 436.12c-513.34,-22.7 -960.8,-34.07 -1342.41,-34.07 -154.43,0 -269.17,1.15 -344.1,3.41 -74.96,2.26 -162.4,14.77 -262.36,37.47 -99.96,22.7 -172.65,57.92 -218.06,105.62 -45.45,47.7 -89.74,116.99 -132.89,207.84 -43.14,90.85 -73.81,206.7 -91.99,347.54 -31.77,227.14 -15.89,387.27 47.7,480.38 63.62,93.14 204.43,180.58 422.5,262.36l919.91 340.73c345.28,127.18 573.52,289.58 684.84,487.23 111.29,197.63 141.96,475.84 91.97,834.74 -68.12,490.64 -230.55,816.58 -487.21,977.85 -256.69,161.28 -678.04,241.91 -1264.04,241.91 -486.09,0 -963.1,-43.14 -1431.03,-129.48l74.99 -442.94c763.19,27.25 1217.47,38.63 1362.83,34.07 408.87,0 691.66,-45.41 848.39,-136.28 156.73,-90.85 255.54,-292.99 296.43,-606.45 31.82,-236.22 15.9,-399.76 -47.69,-490.64 -63.59,-90.85 -204.43,-177.18 -422.5,-258.92z"/>
  <path class="fil0" d="M7679.48 149.94l-88.59 442.91c-381.6,-36.34 -776.85,-54.52 -1185.67,-54.52 -286.21,0 -517.9,25 -695.04,74.96 -177.18,49.97 -333.91,147.63 -470.19,292.99 -136.29,145.39 -243.06,340.76 -320.29,586.08 -77.21,245.32 -140.8,567.82 -190.8,967.62 -77.22,699.59 -63.59,1189.08 40.92,1468.48 104.48,279.39 333.88,419.09 688.2,419.09 227.17,0 436.15,-55.66 626.96,-166.98 190.77,-111.29 411.09,-289.59 660.96,-534.91l218.04 -1580.91 579.23 0 -388.4 2725.7 -429.3 0 13.62 -647.34c-427.04,490.61 -919.91,735.93 -1478.69,735.93 -495.19,0 -835.89,-196.47 -1022.14,-589.45 -186.28,-392.95 -231.72,-1016.47 -136.31,-1870.5 63.62,-486.09 154.47,-888.14 272.6,-1206.16 118.11,-317.98 273.69,-565.53 466.79,-742.74 193.07,-177.18 405.42,-299.84 637.12,-367.98 231.69,-68.11 515.6,-102.21 851.77,-102.21 517.89,0 967.62,49.99 1349.22,149.94z"/>
  <path class="fil0" d="M11236.26 4265.76l34.07 456.54c-372.5,99.96 -833.59,149.91 -1383.27,149.91 -672.37,0 -1126.67,-191.95 -1362.88,-575.79 -236.22,-383.87 -293.02,-1009.65 -170.36,-1877.34 127.21,-894.95 348.68,-1520.73 664.41,-1877.34 315.73,-356.61 809.77,-534.9 1482.11,-534.9 504.23,0 931.28,47.69 1281.08,143.1l-95.4 449.72c-404.32,-40.89 -801.81,-61.33 -1192.5,-61.33 -472.46,0 -817.69,132.88 -1035.76,398.62 -218.1,265.76 -377.05,773.43 -477.01,1523.02 -99.96,708.66 -84.04,1198.16 47.69,1468.48 131.74,270.29 420.24,407.72 865.41,412.24 486.09,0 933.58,-24.96 1342.41,-74.93z"/>
  <path class="fil0" d="M12053.73 4790.44l660.97 -4701.83c390.68,-40.88 922.18,-61.32 1594.54,-61.32 517.9,0 891.55,103.33 1120.94,310.03 229.43,206.72 310.06,564.45 241.92,1073.27 -54.52,367.95 -163.55,647.34 -327.06,838.14 -163.55,190.8 -404.35,306.64 -722.33,347.53l-6.82 34.04c258.95,72.7 424.75,302.13 497.43,688.26l299.83 1471.89 -613.3 0 -279.36 -1485.51c-31.77,-172.63 -89.7,-295.29 -173.74,-367.98 -84.06,-72.67 -203.32,-109 -357.79,-109l-1069.83 -6.82 -279.39 1969.3 -586.01 0zm940.36 -2480.39l1001.69 0c349.83,-4.55 603.08,-71.54 759.81,-201.02 156.7,-129.48 260.06,-369.1 310.03,-718.89 45.44,-327.09 13.66,-549.71 -95.38,-667.84 -109.03,-118.08 -333.91,-177.15 -674.62,-177.15 -522.42,0 -874.48,2.27 -1056.21,6.82l-245.32 1758.08z"/>
  <path class="fil1" d="M2330.29 6432.05c0,66.65 -24.17,118.62 -72.51,155.87 -48.37,37.32 -113.97,55.95 -196.82,55.95 -89.77,0 -158.83,-11.53 -207.17,-34.67l0 -84.96c31.08,13.13 64.93,23.47 101.52,31.08 36.59,7.58 72.85,11.41 108.78,11.41 58.69,0 102.89,-11.15 132.6,-33.44 29.67,-22.26 44.54,-53.21 44.54,-92.95 0,-26.25 -5.26,-47.73 -15.79,-64.49 -10.54,-16.72 -28.15,-32.2 -52.87,-46.33 -24.68,-14.17 -62.22,-30.21 -112.66,-48.18 -70.4,-25.19 -120.75,-55.09 -150.93,-89.61 -30.22,-34.55 -45.35,-79.61 -45.35,-135.17 0,-58.33 21.94,-104.8 65.79,-139.34 43.86,-34.52 101.84,-51.78 174.03,-51.78 75.28,0 144.51,13.78 207.69,41.43l-27.46 76.64c-62.5,-26.24 -123.26,-39.36 -182.3,-39.36 -46.62,0 -83.04,10.04 -109.28,30.03 -26.28,20.03 -39.36,47.82 -39.36,83.39 0,26.24 4.8,47.73 14.49,64.49 9.68,16.74 25.98,32.13 48.94,46.1 22.96,13.98 58.08,29.43 105.4,46.33 79.42,28.34 134.06,58.72 163.92,91.17 29.87,32.45 44.81,74.57 44.81,126.39z"/>
  <polygon class="fil1" points="2539.74,6633.52 2539.74,5876.33 2627.79,5876.33 2627.79,6633.52 "/>
  <path class="fil1" d="M3317.71 6432.05c0,66.65 -24.17,118.62 -72.51,155.87 -48.37,37.32 -113.96,55.95 -196.82,55.95 -89.77,0 -158.83,-11.53 -207.17,-34.67l0 -84.96c31.08,13.13 64.93,23.47 101.52,31.08 36.59,7.58 72.85,11.41 108.78,11.41 58.69,0 102.89,-11.15 132.6,-33.44 29.67,-22.26 44.54,-53.21 44.54,-92.95 0,-26.25 -5.25,-47.73 -15.79,-64.49 -10.54,-16.72 -28.15,-32.2 -52.86,-46.33 -24.69,-14.17 -62.22,-30.21 -112.66,-48.18 -70.41,-25.19 -120.76,-55.09 -150.94,-89.61 -30.21,-34.55 -45.35,-79.61 -45.35,-135.17 0,-58.33 21.95,-104.8 65.8,-139.34 43.85,-34.52 101.83,-51.78 174.02,-51.78 75.28,0 144.51,13.78 207.69,41.43l-27.46 76.64c-62.5,-26.24 -123.26,-39.36 -182.29,-39.36 -46.63,0 -83.05,10.04 -109.29,30.03 -26.27,20.03 -39.36,47.82 -39.36,83.39 0,26.24 4.8,47.73 14.49,64.49 9.68,16.74 25.99,32.13 48.94,46.1 22.96,13.98 58.08,29.43 105.4,46.33 79.42,28.34 134.06,58.72 163.93,91.17 29.86,32.45 44.8,74.57 44.8,126.39z"/>
  <polygon class="fil1" points="3760.23,6633.52 3672.18,6633.52 3672.18,5954.53 3432.37,5954.53 3432.37,5876.33 4000.04,5876.33 4000.04,5954.53 3760.23,5954.53 "/>
  <polygon class="fil1" points="4590.73,6633.52 4168.61,6633.52 4168.61,5876.33 4590.73,5876.33 4590.73,5954.53 4256.66,5954.53 4256.66,6198.45 4570.54,6198.45 4570.54,6276.14 4256.66,6276.14 4256.66,6554.81 4590.73,6554.81 "/>
  <path class="fil1" d="M5148.24 6633.52l-256.88 -671.22 -4.15 0c4.84,53.18 7.27,116.36 7.27,189.53l0 481.69 -81.33 0 0 -757.19 132.6 0 239.8 624.6 4.15 0 241.88 -624.6 131.54 0 0 757.19 -88.05 0 0 -487.9c0,-55.92 2.43,-116.7 7.26,-182.3l-4.14 0 -258.98 670.2 -70.97 0z"/>
  <path class="fil1" d="M6301.08 6633.52l-94.29 -240.83 -303.49 0 -93.23 240.83 -89.07 0 299.36 -760.31 74.07 0 297.79 760.31 -91.14 0zm-121.7 -320.06l-88.08 -234.65c-11.37,-29.68 -23.12,-66.14 -35.22,-109.29 -7.58,33.14 -18.46,69.58 -32.61,109.29l-89.09 234.65 245 0z"/>
  <path class="fil1" d="M7485.78 6247.65c0,125.02 -33.91,220.57 -101.77,286.68 -67.86,66.14 -165.49,99.19 -292.92,99.19l-209.76 0 0 -757.19 232.04 0c117.76,0 209.25,32.6 274.53,97.85 65.24,65.27 97.88,156.44 97.88,273.47zm-93.24 3.12c0,-98.75 -24.77,-173.17 -74.31,-223.22 -49.56,-50.06 -123.2,-75.09 -220.93,-75.09l-127.92 0 0 604.92 107.22 0c104.96,0 183.86,-25.82 236.69,-77.41 52.83,-51.62 79.26,-128.01 79.26,-229.2z"/>
  <polygon class="fil1" points="8131.14,6633.52 7709.03,6633.52 7709.03,5876.33 8131.14,5876.33 8131.14,5954.53 7797.07,5954.53 7797.07,6198.45 8110.96,6198.45 8110.96,6276.14 7797.07,6276.14 7797.07,6554.81 8131.14,6554.81 "/>
  <path class="fil1" d="M9017.08 6236.79l257.39 0 0 368.23c-40.03,12.81 -80.79,22.45 -122.22,29.02 -41.42,6.58 -89.41,9.84 -143.99,9.84 -114.64,0 -203.89,-34.07 -267.76,-102.28 -63.88,-68.2 -95.82,-163.74 -95.82,-286.68 0,-78.72 15.83,-147.69 47.41,-206.92 31.59,-59.19 77.06,-104.42 136.45,-135.68 59.41,-31.27 128.96,-46.88 208.73,-46.88 80.82,0 156.06,14.84 225.83,44.51l-34.2 77.71c-68.36,-28.98 -134.12,-43.5 -197.34,-43.5 -92.18,0 -164.15,27.46 -215.95,82.35 -51.81,54.93 -77.74,131.07 -77.74,228.42 0,102.21 24.97,179.72 74.87,232.54 49.9,52.83 123.16,79.27 219.85,79.27 52.51,0 103.77,-6.05 153.83,-18.15l0 -233.06 -169.35 0 0 -78.72z"/>
  <polygon class="fil1" points="9932.82,6633.52 9510.72,6633.52 9510.72,5876.33 9932.82,5876.33 9932.82,5954.53 9598.76,5954.53 9598.76,6198.45 9912.64,6198.45 9912.64,6276.14 9598.76,6276.14 9598.76,6554.81 9932.82,6554.81 "/>
  <path class="fil1" d="M10582.58 6432.05c0,66.65 -24.16,118.62 -72.5,155.87 -48.37,37.32 -113.97,55.95 -196.82,55.95 -89.77,0 -158.83,-11.53 -207.17,-34.67l0 -84.96c31.08,13.13 64.93,23.47 101.52,31.08 36.59,7.58 72.85,11.41 108.78,11.41 58.69,0 102.89,-11.15 132.6,-33.44 29.67,-22.26 44.54,-53.21 44.54,-92.95 0,-26.25 -5.26,-47.73 -15.8,-64.49 -10.53,-16.72 -28.14,-32.2 -52.86,-46.33 -24.68,-14.17 -62.22,-30.21 -112.66,-48.18 -70.4,-25.19 -120.75,-55.09 -150.93,-89.61 -30.22,-34.55 -45.35,-79.61 -45.35,-135.17 0,-58.33 21.94,-104.8 65.79,-139.34 43.86,-34.52 101.84,-51.78 174.03,-51.78 75.28,0 144.51,13.78 207.69,41.43l-27.46 76.64c-62.5,-26.24 -123.26,-39.36 -182.3,-39.36 -46.62,0 -83.04,10.04 -109.28,30.03 -26.28,20.03 -39.36,47.82 -39.36,83.39 0,26.24 4.8,47.73 14.49,64.49 9.68,16.74 25.98,32.13 48.94,46.1 22.96,13.98 58.08,29.43 105.4,46.33 79.41,28.34 134.06,58.72 163.92,91.17 29.87,32.45 44.8,74.57 44.8,126.39z"/>
  <polygon class="fil1" points="11025.1,6633.52 10937.06,6633.52 10937.06,5954.53 10697.25,5954.53 10697.25,5876.33 11264.91,5876.33 11264.91,5954.53 11025.1,5954.53 "/>
  <path class="fil1" d="M11909.49 6633.52l-94.29 -240.83 -303.49 0 -93.24 240.83 -89.06 0 299.36 -760.31 74.07 0 297.79 760.31 -91.14 0zm-121.7 -320.06l-88.08 -234.65c-11.37,-29.68 -23.12,-66.14 -35.22,-109.29 -7.58,33.14 -18.47,69.58 -32.61,109.29l-89.09 234.65 245 0zm-48.18 -498.79c-14.87,0 -29.36,-3.21 -43.53,-9.57 -14.14,-6.37 -28.02,-13.47 -41.65,-21.24 -13.66,-7.74 -26.78,-14.84 -39.36,-21.24 -12.61,-6.36 -24.81,-9.58 -36.56,-9.58 -17.26,0 -30.28,5.2 -39.1,15.55 -8.79,10.38 -15.6,26.08 -20.44,47.13l-50.76 0c4.49,-41.78 16.66,-74.48 36.53,-98.14 19.83,-23.66 45.48,-35.47 76.9,-35.47 15.89,0 31.24,3.18 46.11,9.58 14.84,6.39 28.98,13.47 42.45,21.23 13.47,7.77 26.43,14.87 38.88,21.24 12.41,6.36 24.13,9.58 35.18,9.58 16.94,0 29.55,-5.09 37.84,-15.28 8.28,-10.23 14.99,-25.99 20.19,-47.38l51.27 0c-4.49,41.74 -16.46,74.47 -35.98,98.1 -19.52,23.69 -45.5,35.5 -77.95,35.5z"/>
  <path class="fil1" d="M12816.53 6253.89c0,121.19 -30.63,216.49 -91.92,285.88 -61.3,69.42 -146.48,104.09 -255.61,104.09 -111.54,0 -197.62,-34.07 -258.19,-102.28 -60.59,-68.2 -90.91,-164.43 -90.91,-288.75 0,-123.26 30.38,-218.82 91.17,-286.68 60.78,-67.86 147.08,-101.77 258.94,-101.77 108.78,0 193.73,34.54 254.84,103.58 61.13,69.07 91.67,164.37 91.67,285.92zm-603.42 0c0,102.56 21.88,180.32 65.53,233.31 43.69,52.99 107.12,79.52 190.36,79.52 83.91,0 147.25,-26.44 190.08,-79.27 42.82,-52.83 64.22,-130.68 64.22,-233.56 0,-101.87 -21.33,-179.15 -63.97,-231.79 -42.64,-52.67 -105.76,-79 -189.31,-79 -83.91,0 -147.69,26.53 -191.37,79.51 -43.66,52.99 -65.53,130.08 -65.53,231.28z"/>
  <path class="fil1" d="M13974.67 6247.65c0,125.02 -33.91,220.57 -101.77,286.68 -67.86,66.14 -165.49,99.19 -292.92,99.19l-209.75 0 0 -757.19 232.04 0c117.76,0 209.24,32.6 274.52,97.85 65.24,65.27 97.88,156.44 97.88,273.47zm-93.23 3.12c0,-98.75 -24.78,-173.17 -74.32,-223.22 -49.55,-50.06 -123.2,-75.09 -220.92,-75.09l-127.92 0 0 604.92 107.22 0c104.95,0 183.86,-25.82 236.69,-77.41 52.83,-51.62 79.26,-128.01 79.26,-229.2z"/>
  <polygon class="fil1" points="14620.06,6633.52 14197.96,6633.52 14197.96,5876.33 14620.06,5876.33 14620.06,5954.53 14286,5954.53 14286,6198.45 14599.88,6198.45 14599.88,6276.14 14286,6276.14 14286,6554.81 14620.06,6554.81 "/>
  <path class="fil1" d="M2533.91 7376.46c-83.2,0 -148.87,27.7 -197.04,83.1 -48.18,55.45 -72.28,131.33 -72.28,227.65 0,99.1 23.21,175.68 69.67,229.71 46.45,54.04 112.66,81.04 198.63,81.04 52.83,0 113.08,-9.48 180.74,-28.46l0 77.19c-52.48,19.64 -117.21,29.48 -194.21,29.48 -111.54,0 -197.62,-33.82 -258.18,-101.52 -60.6,-67.67 -90.92,-163.83 -90.92,-288.46 0,-78.05 14.58,-146.42 43.79,-205.14 29.17,-58.66 71.29,-103.9 126.35,-135.68 55.08,-31.79 119.88,-47.64 194.47,-47.64 79.42,0 148.83,14.49 208.25,43.5l-37.32 75.62c-57.32,-26.94 -114.64,-40.4 -171.95,-40.4z"/>
  <path class="fil1" d="M3590.69 7686.19c0,121.19 -30.63,216.49 -91.93,285.88 -61.29,69.42 -146.47,104.09 -255.6,104.09 -111.54,0 -197.62,-34.07 -258.19,-102.28 -60.6,-68.2 -90.92,-164.43 -90.92,-288.75 0,-123.26 30.39,-218.82 91.17,-286.68 60.79,-67.86 147.09,-101.77 258.95,-101.77 108.78,0 193.73,34.54 254.84,103.58 61.13,69.07 91.67,164.38 91.67,285.92zm-603.42 0c0,102.56 21.88,180.33 65.53,233.31 43.69,52.99 107.11,79.52 190.36,79.52 83.91,0 147.24,-26.43 190.07,-79.26 42.83,-52.83 64.23,-130.68 64.23,-233.57 0,-101.87 -21.33,-179.15 -63.97,-231.79 -42.64,-52.67 -105.76,-79 -189.31,-79 -83.91,0 -147.69,26.53 -191.37,79.52 -43.66,52.98 -65.53,130.08 -65.53,231.27zm183.38 -451.12c16.56,-21.39 34.42,-47.29 53.62,-77.7 19.14,-30.39 34.23,-56.81 45.29,-79.26l104.64 0 0 10.88c-15.22,22.45 -37.84,50.06 -67.86,82.86 -30.03,32.83 -56.11,58.2 -78.21,76.14l-57.48 0 0 -12.93z"/>
  <path class="fil1" d="M4418.36 7679.95c0,125.02 -33.92,220.57 -101.77,286.68 -67.86,66.14 -165.49,99.19 -292.93,99.19l-209.75 0 0 -757.19 232.04 0c117.76,0 209.25,32.61 274.52,97.85 65.25,65.28 97.89,156.45 97.89,273.47zm-93.24 3.12c0,-98.75 -24.77,-173.16 -74.32,-223.22 -49.55,-50.06 -123.19,-75.09 -220.92,-75.09l-127.92 0 0 604.92 107.22 0c104.96,0 183.86,-25.82 236.69,-77.41 52.83,-51.61 79.26,-128.01 79.26,-229.2z"/>
  <polygon class="fil1" points="4641.64,8065.82 4641.64,7308.63 4729.69,7308.63 4729.69,8065.82 "/>
  <path class="fil1" d="M5325.32 7669.09l257.38 0 0 368.24c-40.02,12.8 -80.79,22.44 -122.21,29.01 -41.43,6.59 -89.41,9.84 -143.99,9.84 -114.64,0 -203.9,-34.07 -267.77,-102.28 -63.88,-68.2 -95.82,-163.74 -95.82,-286.68 0,-78.71 15.83,-147.69 47.42,-206.92 31.58,-59.19 77.05,-104.41 136.44,-135.68 59.42,-31.27 128.96,-46.88 208.73,-46.88 80.82,0 156.07,14.84 225.83,44.52l-34.2 77.7c-68.36,-28.98 -134.12,-43.49 -197.33,-43.49 -92.18,0 -164.15,27.45 -215.96,82.35 -51.81,54.92 -77.73,131.06 -77.73,228.41 0,102.22 24.96,179.73 74.86,232.55 49.9,52.83 123.17,79.26 219.85,79.26 52.51,0 103.77,-6.05 153.83,-18.15l0 -233.06 -169.34 0 0 -78.72z"/>
  <path class="fil1" d="M6476.23 7686.19c0,121.19 -30.64,216.49 -91.93,285.88 -61.3,69.42 -146.48,104.09 -255.61,104.09 -111.54,0 -197.62,-34.07 -258.19,-102.28 -60.59,-68.2 -90.91,-164.43 -90.91,-288.75 0,-123.26 30.38,-218.82 91.17,-286.68 60.79,-67.86 147.09,-101.77 258.94,-101.77 108.78,0 193.74,34.54 254.84,103.58 61.14,69.07 91.68,164.38 91.68,285.92zm-603.43 0c0,102.56 21.88,180.33 65.53,233.31 43.7,52.99 107.12,79.52 190.36,79.52 83.91,0 147.25,-26.43 190.08,-79.26 42.83,-52.83 64.22,-130.68 64.22,-233.57 0,-101.87 -21.33,-179.15 -63.97,-231.79 -42.64,-52.67 -105.75,-79 -189.31,-79 -83.9,0 -147.68,26.53 -191.37,79.52 -43.66,52.98 -65.53,130.08 -65.53,231.27z"/>
  <path class="fil1" d="M7126.75 7864.36c0,66.64 -24.17,118.61 -72.51,155.86 -48.37,37.32 -113.96,55.95 -196.82,55.95 -89.77,0 -158.83,-11.53 -207.17,-34.67l0 -84.95c31.08,13.12 64.93,23.47 101.52,31.08 36.59,7.57 72.85,11.4 108.78,11.4 58.69,0 102.89,-11.15 132.6,-33.44 29.68,-22.26 44.55,-53.21 44.55,-92.95 0,-26.24 -5.26,-47.73 -15.8,-64.49 -10.54,-16.71 -28.15,-32.19 -52.86,-46.33 -24.69,-14.17 -62.22,-30.21 -112.66,-48.18 -70.41,-25.19 -120.75,-55.08 -150.94,-89.61 -30.21,-34.54 -45.35,-79.61 -45.35,-135.17 0,-58.33 21.95,-104.8 65.8,-139.34 43.85,-34.52 101.83,-51.78 174.02,-51.78 75.28,0 144.51,13.79 207.69,41.43l-27.45 76.65c-62.51,-26.24 -123.27,-39.36 -182.3,-39.36 -46.63,0 -83.05,10.03 -109.29,30.02 -26.27,20.03 -39.36,47.83 -39.36,83.39 0,26.24 4.8,47.73 14.49,64.49 9.68,16.75 25.99,32.13 48.94,46.11 22.96,13.97 58.08,29.42 105.4,46.32 79.42,28.34 134.06,58.73 163.93,91.17 29.86,32.45 44.8,74.58 44.8,126.4z"/>
  <path class="fil1" d="M8271.12 7679.95c0,125.02 -33.91,220.57 -101.77,286.68 -67.86,66.14 -165.49,99.19 -292.92,99.19l-209.75 0 0 -757.19 232.04 0c117.76,0 209.24,32.61 274.52,97.85 65.25,65.28 97.88,156.45 97.88,273.47zm-93.23 3.12c0,-98.75 -24.78,-173.16 -74.32,-223.22 -49.55,-50.06 -123.2,-75.09 -220.92,-75.09l-127.92 0 0 604.92 107.22 0c104.95,0 183.86,-25.82 236.69,-77.41 52.83,-51.61 79.26,-128.01 79.26,-229.2z"/>
  <polygon class="fil1" points="8916.52,8065.82 8494.41,8065.82 8494.41,7308.63 8916.52,7308.63 8916.52,7386.84 8582.46,7386.84 8582.46,7630.75 8896.33,7630.75 8896.33,7708.45 8582.46,7708.45 8582.46,7987.11 8916.52,7987.11 "/>
  <path class="fil1" d="M9557.46 7750.93l0 314.89 -88.06 0 0 -757.19 207.69 0c92.89,0 161.51,17.77 205.89,53.3 44.36,35.57 66.56,89.1 66.56,160.59 0,100.12 -50.76,167.82 -152.28,203.03l205.64 340.27 -104.12 0 -183.35 -314.89 -157.97 0zm0 -75.63l120.68 0c62.16,0 107.73,-12.35 136.77,-37.03 28.99,-24.68 43.47,-61.72 43.47,-111.07 0,-50.09 -14.75,-86.16 -44.27,-108.26 -29.55,-22.1 -76.93,-33.15 -142.17,-33.15l-114.47 0 0 289.52z"/>
  <polygon class="fil1" points="10601.79,8065.82 10179.67,8065.82 10179.67,7308.63 10601.79,7308.63 10601.79,7386.84 10267.72,7386.84 10267.72,7630.75 10581.59,7630.75 10581.59,7708.45 10267.72,7708.45 10267.72,7987.11 10601.79,7987.11 "/>
  <path class="fil1" d="M11148.44 7376.46c-83.2,0 -148.87,27.7 -197.04,83.1 -48.19,55.45 -72.29,131.33 -72.29,227.65 0,99.1 23.22,175.68 69.67,229.71 46.46,54.04 112.66,81.04 198.64,81.04 52.83,0 113.08,-9.48 180.74,-28.46l0 77.19c-52.49,19.64 -117.22,29.48 -194.21,29.48 -111.54,0 -197.62,-33.82 -258.19,-101.52 -60.6,-67.67 -90.92,-163.83 -90.92,-288.46 0,-78.05 14.59,-146.42 43.79,-205.14 29.17,-58.66 71.3,-103.9 126.35,-135.68 55.09,-31.79 119.89,-47.64 194.47,-47.64 79.42,0 148.84,14.49 208.26,43.5l-37.32 75.62c-57.32,-26.94 -114.64,-40.4 -171.95,-40.4z"/>
  <path class="fil1" d="M12023.9 8065.82l-94.29 -240.83 -303.49 0 -93.24 240.83 -89.06 0 299.36 -760.31 74.06 0 297.8 760.31 -91.14 0zm-121.7 -320.06l-88.08 -234.65c-11.38,-29.68 -23.13,-66.14 -35.23,-109.29 -7.57,33.15 -18.46,69.58 -32.6,109.29l-89.1 234.65 245.01 0z"/>
  <path class="fil1" d="M12361.76 7750.93l0 314.89 -88.05 0 0 -757.19 207.68 0c92.89,0 161.51,17.77 205.9,53.3 44.35,35.57 66.55,89.1 66.55,160.59 0,100.12 -50.76,167.82 -152.27,203.03l205.64 340.27 -104.13 0 -183.35 -314.89 -157.97 0zm0 -75.63l120.69 0c62.15,0 107.72,-12.35 136.77,-37.03 28.98,-24.68 43.46,-61.72 43.46,-111.07 0,-50.09 -14.74,-86.16 -44.26,-108.26 -29.55,-22.1 -76.94,-33.15 -142.18,-33.15l-114.47 0 0 289.52z"/>
  <path class="fil1" d="M13317.02 7669.09l257.38 0 0 368.24c-40.02,12.8 -80.79,22.44 -122.21,29.01 -41.43,6.59 -89.41,9.84 -143.99,9.84 -114.64,0 -203.9,-34.07 -267.77,-102.28 -63.88,-68.2 -95.82,-163.74 -95.82,-286.68 0,-78.71 15.83,-147.69 47.41,-206.92 31.59,-59.19 77.06,-104.41 136.45,-135.68 59.42,-31.27 128.96,-46.88 208.73,-46.88 80.82,0 156.07,14.84 225.83,44.52l-34.2 77.7c-68.36,-28.98 -134.12,-43.49 -197.33,-43.49 -92.19,0 -164.15,27.45 -215.96,82.35 -51.81,54.92 -77.73,131.06 -77.73,228.41 0,102.22 24.96,179.73 74.86,232.55 49.9,52.83 123.17,79.26 219.85,79.26 52.51,0 103.77,-6.05 153.83,-18.15l0 -233.06 -169.34 0 0 -78.72z"/>
  <path class="fil1" d="M14286.64 8065.82l-94.29 -240.83 -303.49 0 -93.24 240.83 -89.06 0 299.36 -760.31 74.07 0 297.79 760.31 -91.14 0zm-121.7 -320.06l-88.08 -234.65c-11.37,-29.68 -23.13,-66.14 -35.22,-109.29 -7.58,33.15 -18.47,69.58 -32.61,109.29l-89.1 234.65 245.01 0z"/>
  <path class="fil0" d="M15900.03 217.64l0 1286.88c3849.32,0 6969.75,3120.43 6969.75,6969.79l1286.88 0c0,-4560.5 -3696.13,-8256.66 -8256.63,-8256.66z"/>
  <path class="fil2" d="M15900.03 2791.4l0 1286.88c2428.61,0 4396,1969.02 4396,4396.03l1286.88 0c0,-3138.17 -2544.71,-5682.91 -5682.88,-5682.91z"/>
  <path class="fil3" d="M17133.67 6008.6c-682.15,0 -1233.64,551.52 -1233.64,1232.04 0,682.15 551.49,1233.67 1233.64,1233.67 680.54,0 1233.67,-551.52 1233.67,-1233.67 -1.6,-680.51 -553.12,-1232.04 -1233.67,-1232.04z"/>
 </g>
</svg>
